<?xml version="1.0" standalone="no"?>
<!DOCTYPE svg PUBLIC "-//W3C//DTD SVG 20010904//EN"
 "http://www.w3.org/TR/2001/REC-SVG-20010904/DTD/svg10.dtd">
<svg version="1.0" xmlns="http://www.w3.org/2000/svg"
 width="598.000000pt" height="598.000000pt" viewBox="0 0 598.000000 598.000000"
 preserveAspectRatio="xMidYMid meet">
<metadata>
Created by potrace 1.16, written by Peter Selinger 2001-2019
</metadata>
<g transform="translate(0.000000,598.000000) scale(0.100000,-0.100000)"
fill="#ba1501" stroke="#00000">
<path d="M1763 4453 c-4 -10 -13 -23 -21 -28 -10 -8 -15 -63 -21 -236 -4 -123
-11 -230 -15 -237 -4 -7 -18 -12 -32 -12 -37 0 -75 -23 -110 -66 -37 -47 -49
-87 -33 -117 17 -32 28 -37 81 -37 62 0 84 10 142 64 l48 46 49 -16 c68 -23
226 -17 240 9 10 16 12 16 29 -5 45 -55 147 -11 191 84 12 26 28 48 36 48 7 0
13 6 13 14 0 7 9 16 20 19 18 4 20 14 20 74 0 105 41 233 75 233 19 0 35 -31
35 -67 0 -33 -32 -161 -60 -241 -18 -51 -18 -52 0 -62 28 -15 38 -13 68 15 31
29 47 32 56 9 13 -34 4 -46 -66 -78 -73 -33 -148 -99 -148 -131 0 -32 82 -61
133 -47 48 13 145 101 170 154 12 26 29 50 38 53 15 5 63 43 100 80 11 11 18
41 22 98 3 47 14 105 26 137 30 79 37 87 58 74 36 -22 25 -140 -28 -282 -25
-69 -24 -80 7 -88 19 -5 32 0 53 20 31 30 46 33 55 10 15 -38 6 -50 -61 -79
-119 -52 -180 -134 -120 -163 38 -18 72 -22 108 -12 47 13 142 100 169 154 11
24 32 51 45 60 23 15 25 15 35 -3 5 -11 10 -26 10 -35 0 -8 11 -27 24 -43 48
-56 135 -28 186 61 l22 38 22 -38 c30 -53 66 -76 119 -78 37 0 53 5 84 30 56
46 187 230 178 251 -5 15 -12 12 -43 -23 -20 -22 -63 -76 -95 -118 -79 -105
-100 -98 -128 42 -13 60 -12 64 6 75 11 6 38 29 61 52 92 90 73 215 -34 215
-25 0 -44 -10 -80 -44 -61 -57 -89 -113 -102 -204 -9 -66 -73 -222 -91 -222
-18 0 -24 51 -24 225 0 175 -1 190 -18 193 -20 4 -63 -37 -77 -73 -5 -13 -14
-67 -20 -121 -14 -131 -38 -158 -78 -90 -15 26 -30 37 -57 42 -28 5 -35 10
-29 23 42 101 50 215 17 259 -25 34 -77 52 -118 41 -39 -11 -99 -79 -132 -149
-19 -41 -27 -78 -31 -143 -5 -83 -7 -90 -30 -100 -21 -10 -26 -9 -30 3 -9 26
-60 70 -81 70 -25 0 -25 1 -1 70 23 66 26 160 5 199 -8 17 -30 35 -55 45 -35
14 -45 14 -73 2 -76 -31 -146 -152 -161 -278 -3 -27 -25 -86 -49 -135 -43 -85
-44 -86 -58 -62 -11 18 -14 69 -14 209 0 170 -1 185 -18 188 -23 5 -66 -41
-79 -82 -15 -49 -26 -206 -19 -268 8 -64 5 -68 -59 -68 -41 0 -166 35 -175 49
-3 5 3 38 12 73 13 49 16 102 15 243 -1 99 -5 194 -10 210 -7 26 -13 30 -50
33 -33 3 -44 -1 -49 -15z"/>
<path d="M3993 4333 c-4 -9 -14 -24 -23 -33 -9 -9 -24 -54 -34 -101 -24 -116
-62 -271 -86 -349 -11 -36 -20 -68 -20 -72 0 -14 31 -8 36 7 4 8 12 15 19 15
15 0 76 165 101 273 10 42 21 74 25 71 4 -2 17 -34 29 -69 l22 -65 -52 -46
c-85 -78 -100 -126 -51 -175 25 -24 37 -29 81 -29 61 0 96 16 138 65 38 42 46
71 40 130 -5 42 -4 45 35 71 99 66 116 108 24 62 -29 -15 -58 -28 -65 -30 -7
-2 -24 24 -41 63 -72 170 -156 270 -178 212z"/>
<path d="M2795 3673 c-11 -3 -33 -19 -50 -35 l-29 -30 -4 -193 c-4 -179 -6
-194 -23 -198 -25 -7 -24 -21 4 -36 19 -10 17 -11 -17 -6 -47 8 -46 -15 2 -29
34 -11 33 -4 49 -201 l8 -90 34 2 c19 1 38 8 43 17 5 9 16 16 23 16 12 0 15
22 15 123 l0 122 57 25 c98 42 206 158 226 241 5 21 12 25 29 22 28 -5 92 52
84 74 -3 8 -6 17 -6 19 0 2 -14 4 -31 4 -22 0 -32 -5 -36 -20 -8 -29 -33 -25
-33 5 0 62 -63 125 -125 125 -37 0 -94 -34 -131 -80 l-29 -34 -10 79 c-10 80
-14 86 -50 78z m225 -251 c0 -106 -30 -170 -92 -201 -79 -38 -81 -35 -76 77 4
88 8 104 41 169 47 92 63 102 100 63 25 -28 27 -37 27 -108z"/>
<path d="M1955 3601 c-22 -10 -55 -35 -74 -56 -28 -32 -36 -36 -50 -27 -87 64
-132 69 -180 21 -37 -37 -40 -78 -10 -129 32 -52 168 -217 184 -224 10 -4 23
12 42 52 18 40 56 86 124 155 100 101 121 137 99 176 -11 22 -59 51 -82 51 -7
0 -31 -9 -53 -19z m85 -54 c0 -15 -30 -52 -94 -115 -51 -51 -101 -108 -112
-127 -10 -19 -22 -35 -25 -35 -8 0 -96 101 -122 140 -23 34 -21 63 6 87 52 47
95 33 127 -43 11 -24 26 -44 34 -44 9 0 27 21 40 48 45 88 146 150 146 89z"/>
<path d="M3483 3477 c-34 -19 -91 -90 -114 -144 -11 -26 -23 -75 -26 -108 -4
-44 -18 -84 -51 -150 -39 -79 -46 -87 -57 -72 -20 27 -28 137 -20 273 l7 124
-31 0 c-20 0 -31 -5 -31 -15 0 -7 -7 -18 -15 -22 -44 -25 -62 -299 -26 -380
21 -46 45 -63 89 -63 40 0 105 58 126 114 10 25 24 46 32 46 8 0 14 7 14 15 0
8 9 15 20 15 18 0 20 7 20 68 0 100 45 242 77 242 43 0 41 -101 -7 -250 -36
-114 -36 -118 -7 -129 17 -7 28 -3 52 20 35 33 50 36 59 13 15 -39 6 -50 -69
-83 -55 -25 -84 -44 -111 -78 -44 -53 -40 -70 23 -92 34 -12 49 -12 82 -3 51
16 145 101 168 153 10 23 32 49 52 61 19 12 49 36 66 52 29 28 32 38 38 113 6
84 36 186 61 212 13 12 17 12 32 0 25 -20 14 -132 -26 -252 -17 -55 -30 -100
-28 -102 30 -25 48 -23 79 5 38 36 53 34 57 -7 3 -28 -1 -31 -70 -63 -78 -36
-138 -91 -138 -128 0 -45 98 -67 157 -34 50 26 124 102 143 145 10 21 31 47
48 57 30 19 31 19 46 -6 26 -38 64 -32 118 20 l47 44 6 -41 c23 -155 46 -200
102 -200 58 0 98 46 175 201 55 110 69 145 59 155 -18 18 -50 -23 -116 -151
-32 -61 -62 -112 -66 -112 -11 0 -11 -4 2 223 6 103 8 199 5 213 -6 24 -8 24
-89 19 -118 -9 -126 -12 -174 -62 -57 -59 -74 -94 -81 -165 -4 -51 -8 -61 -32
-73 -25 -13 -27 -12 -45 21 -11 21 -31 38 -52 46 -38 14 -38 7 -8 117 32 119
-1 199 -87 208 -44 5 -49 3 -96 -41 -70 -66 -102 -142 -108 -254 -3 -79 -6
-87 -27 -99 -22 -11 -26 -9 -48 24 -14 21 -37 41 -54 46 -16 5 -31 11 -33 12
-1 1 7 28 18 60 12 35 20 84 20 123 0 60 -2 66 -34 98 -37 37 -81 44 -123 21z"/>
<path d="M2058 3209 c-39 -22 -21 -55 90 -169 132 -134 141 -149 118 -185 -22
-33 -5 -60 30 -51 13 4 26 2 29 -4 3 -5 13 -10 22 -10 12 0 14 7 9 33 -6 31
-2 38 41 78 27 25 74 65 106 89 94 71 108 117 53 178 -33 36 -37 37 -101 37
-65 0 -67 -1 -106 -42 -22 -24 -42 -43 -44 -43 -3 0 -25 16 -50 35 -42 32
-127 65 -164 65 -9 0 -24 -5 -33 -11z m130 -58 c47 -24 92 -66 92 -85 0 -13
28 -36 43 -36 2 0 18 22 35 50 31 50 82 90 114 90 9 0 29 -10 43 -23 24 -20
26 -25 14 -50 -7 -14 -23 -34 -36 -42 -13 -9 -59 -44 -102 -79 l-79 -64 -35
47 c-20 25 -68 77 -106 116 -39 38 -71 75 -71 82 0 19 45 16 88 -6z"/>
</g>
</svg>
